<?xml version="1.0" encoding="utf-8"?>
<!-- Generator: Adobe Illustrator 16.0.0, SVG Export Plug-In . SVG Version: 6.00 Build 0)  -->
<!DOCTYPE svg PUBLIC "-//W3C//DTD SVG 1.1//EN" "http://www.w3.org/Graphics/SVG/1.1/DTD/svg11.dtd">
<svg version="1.1" id="Layer_1" xmlns="http://www.w3.org/2000/svg" xmlns:xlink="http://www.w3.org/1999/xlink" x="0px" y="0px"
	 width="64px" height="64px" viewBox="0 0 64 64" enable-background="new 0 0 64 64" xml:space="preserve">
<g id="layer1">
	<path id="path2830" fill="#FFFFFF" d="M9.263,36.515l4.401,0.043L13.51,56.156h29.291V36.629h4.639v24.287H9.239L9.263,36.515z"/>
	<rect id="rect3604" x="16.439" y="48.101" fill="#FFFFFF" width="22.945" height="4.883"/>
	
		<rect id="rect3606" x="16.683" y="40.412" transform="matrix(-0.9954 -0.0961 0.0961 -0.9954 52.1794 88.3412)" fill="#FFFFFF" width="23.067" height="5.004"/>
	
		<rect id="rect3606-1" x="17.965" y="32.419" transform="matrix(-0.9624 -0.2716 0.2716 -0.9624 48.4014 76.5405)" fill="#FFFFFF" width="23.066" height="5.004"/>
	
		<rect id="rect3606-1-3" x="21.505" y="23.753" transform="matrix(-0.856 -0.517 0.517 -0.856 47.7435 65.8097)" fill="#FFFFFF" width="23.066" height="5.003"/>
	
		<rect id="rect3606-1-3-7" x="28.839" y="15.846" transform="matrix(-0.5825 -0.8129 0.8129 -0.5825 48.9737 61.8533)" fill="#FFFFFF" width="23.067" height="5.004"/>
	
		<rect id="rect3606-1-3-7-6" x="39.196" y="11.704" transform="matrix(-0.1648 -0.9863 0.9863 -0.1648 45.0767 66.5829)" fill="#FFFFFF" width="23.066" height="5.004"/>
</g>
</svg>
